<svg width="72" height="72" viewBox="0 0 72 72" fill="none" xmlns="http://www.w3.org/2000/svg">
<path d="M23.4103 33.2642C23.393 33.8419 23.4694 34.4185 23.6366 34.9717C23.8019 35.4481 24.0084 35.9093 24.2537 36.3499C24.3414 36.4775 24.3913 36.6273 24.3977 36.7819C24.3869 36.9007 24.3476 37.015 24.2831 37.1153C24.2187 37.2156 24.131 37.2988 24.0274 37.3579L22.8137 38.1602C22.6694 38.2634 22.4974 38.3207 22.32 38.3248C22.2106 38.323 22.1028 38.2983 22.0036 38.2522C21.9044 38.2062 21.816 38.1398 21.744 38.0574C21.4776 37.7904 21.2429 37.4936 21.0446 37.1728C20.8594 36.8437 20.6743 36.4734 20.4686 36.0414C19.7938 36.8845 18.935 37.5619 17.958 38.0219C16.981 38.4819 15.9117 38.7121 14.832 38.6951C14.1345 38.7328 13.4365 38.6302 12.7793 38.3935C12.1221 38.1568 11.519 37.7906 11.0057 37.3168C10.5282 36.8348 10.157 36.2581 9.91606 35.6239C9.67512 34.9897 9.56979 34.312 9.60686 33.6345C9.58193 32.8889 9.72418 32.1472 10.0232 31.4638C10.3222 30.7804 10.7704 30.1725 11.3349 29.6848C12.6755 28.6398 14.3483 28.1138 16.0457 28.2037C16.7341 28.2006 17.4217 28.2487 18.1029 28.3477C18.8229 28.4505 19.5429 28.5945 20.304 28.7591V27.3602C20.4139 26.2595 20.0891 25.1595 19.3989 24.2951C18.5095 23.6084 17.3893 23.2916 16.272 23.4105C15.5791 23.4138 14.8889 23.4966 14.2149 23.6574C13.5133 23.8239 12.8256 24.0439 12.1577 24.3157L11.4789 24.5625H11.1909C10.9029 24.5625 10.7794 24.3568 10.7794 23.9659V23.0197C10.7612 22.7932 10.8038 22.5659 10.9029 22.3614C11.0559 22.1855 11.2455 22.0451 11.4583 21.9499C12.2285 21.5794 13.0351 21.2898 13.8651 21.0859C14.8394 20.8351 15.842 20.7106 16.848 20.7157C18.6615 20.5576 20.4645 21.1191 21.8674 22.2791C22.4436 22.9116 22.8819 23.657 23.1546 24.468C23.4273 25.279 23.5284 26.1378 23.4514 26.9899L23.4103 33.2642ZM15.6343 36.1854C16.3349 36.1864 17.0305 36.0682 17.6914 35.8357C18.3953 35.5954 19.0209 35.1689 19.5017 34.6014C19.8191 34.2582 20.0454 33.8409 20.16 33.3877C20.2929 32.8425 20.3552 32.2824 20.3451 31.7214V30.8574C19.7407 30.7318 19.1294 30.6425 18.5143 30.5899C17.8971 30.5899 17.3006 30.5899 16.704 30.5899C15.6983 30.5093 14.6956 30.7781 13.8651 31.3511C13.5442 31.6212 13.2913 31.9631 13.127 32.3491C12.9626 32.735 12.8913 33.1542 12.9189 33.5728C12.885 33.9455 12.9298 34.3213 13.0502 34.6756C13.1707 35.03 13.3642 35.3551 13.6183 35.6299C14.1902 36.0747 14.9153 36.2745 15.6343 36.1854ZM31.0423 38.2425C30.7816 38.2668 30.5204 38.2015 30.3017 38.0574C30.0929 37.8495 29.9498 37.5848 29.8903 37.2962L25.4057 22.4848C25.3146 22.2332 25.2592 21.9701 25.2411 21.7031C25.2411 21.3945 25.3851 21.2299 25.6937 21.2299H27.5863C27.847 21.2057 28.1082 21.271 28.3269 21.4151C28.5272 21.6262 28.6629 21.8904 28.7177 22.1762L31.9474 34.9717L34.9714 22.1968C35.003 21.9079 35.1339 21.6388 35.3417 21.4357C35.568 21.2915 35.8357 21.2264 36.1029 21.2505H37.6457C37.9194 21.2264 38.1936 21.2914 38.4274 21.4357C38.6203 21.6493 38.7487 21.9132 38.7977 22.1968L41.7806 34.9717L45.0926 22.1351C45.1474 21.8492 45.2831 21.5851 45.4834 21.3739C45.7021 21.2299 45.9633 21.1646 46.224 21.1888H48.0137C48.0774 21.1824 48.1418 21.1902 48.2021 21.2117C48.2624 21.2332 48.3172 21.2679 48.3625 21.3132C48.4078 21.3584 48.4424 21.4132 48.464 21.4736C48.4855 21.5339 48.4933 21.5982 48.4869 21.6619C48.4946 21.7647 48.4946 21.8678 48.4869 21.9705C48.4869 21.9705 48.4869 22.2379 48.3634 22.4437L43.7143 37.2551C43.6595 37.541 43.5238 37.8051 43.3234 38.0162C43.1023 38.1547 42.8431 38.2195 42.5829 38.2014H40.9371C40.6667 38.2302 40.3952 38.1568 40.176 37.9957C39.9722 37.7896 39.842 37.5221 39.8057 37.2345L36.8229 24.8917L33.8606 37.2345C33.8243 37.5221 33.6941 37.7896 33.4903 37.9957C33.2695 38.1533 32.9993 38.2263 32.7291 38.2014L31.0423 38.2425ZM55.728 38.7362C54.7312 38.741 53.7372 38.6305 52.7657 38.4071C52.0011 38.2536 51.2607 37.9976 50.5646 37.6459C50.3185 37.5287 50.1114 37.343 49.968 37.1111C49.8881 36.9367 49.846 36.7474 49.8446 36.5557V35.5888C49.8446 35.1979 49.9886 34.9922 50.2766 34.9922C50.3992 34.9726 50.5242 34.9726 50.6469 34.9922L51.12 35.1979C51.7793 35.4926 52.4693 35.7133 53.1771 35.8562C53.9273 36.0196 54.6928 36.1024 55.4606 36.1031C56.435 36.1637 57.4064 35.9423 58.2583 35.4654C58.5676 35.2772 58.8218 35.0108 58.9952 34.6929C59.1686 34.375 59.255 34.017 59.2457 33.6551C59.2555 33.4089 59.2149 33.1634 59.1265 32.9335C59.038 32.7036 58.9036 32.4941 58.7314 32.3179C58.1746 31.8353 57.5123 31.4901 56.7977 31.3099L54.0206 30.4254C52.8191 30.1233 51.7454 29.4459 50.9554 28.4917C50.3342 27.6908 49.9944 26.7075 49.9886 25.6939C49.9773 24.9751 50.1546 24.2658 50.5029 23.6368C50.847 23.0186 51.3164 22.4791 51.8811 22.0528C52.4995 21.5987 53.1972 21.2638 53.9383 21.0654C54.7271 20.8381 55.5449 20.7272 56.3657 20.7362C56.7903 20.7062 57.2165 20.7062 57.6411 20.7362L58.896 20.9419L59.9863 21.2505L60.7886 21.5797C61.0038 21.7068 61.1981 21.8664 61.3646 22.0528C61.4792 22.2453 61.5363 22.4666 61.5291 22.6905V23.5957C61.5291 24.0071 61.3851 24.2128 61.0971 24.2128C60.8358 24.1829 60.5836 24.0988 60.3566 23.9659C59.189 23.4585 57.9266 23.206 56.6537 23.2254C55.7717 23.1826 54.8934 23.3668 54.1029 23.7602C53.8093 23.9389 53.57 24.1942 53.4105 24.4986C53.251 24.8031 53.1775 25.1452 53.1977 25.4882C53.1968 25.7418 53.2474 25.9928 53.3464 26.2262C53.4454 26.4596 53.5908 26.6704 53.7737 26.8459C54.381 27.3319 55.0809 27.6889 55.8309 27.8951L58.5463 28.7591C59.6973 29.0645 60.7297 29.7097 61.5086 30.6105C62.0983 31.3837 62.41 32.3331 62.3931 33.3054C62.4054 34.0744 62.2362 34.8356 61.8994 35.5271C61.569 36.1894 61.0904 36.7667 60.5006 37.2139C59.8902 37.7046 59.1921 38.0746 58.4434 38.3042C57.5455 38.593 56.6094 38.7455 55.6663 38.7568L55.728 38.7362Z" fill="#232F3E"/>
<path fill-rule="evenodd" clip-rule="evenodd" d="M59.2878 48.1986C52.4026 52.8775 44.2637 55.3658 35.9392 55.3369C25.4141 55.3938 15.2467 51.5205 7.42722 44.4752C6.83065 43.9403 7.42722 43.1998 8.08551 43.6112C16.7643 48.5837 26.5951 51.1939 36.5975 51.1815C44.0745 51.1511 51.4715 49.6409 58.3621 46.7381C59.4318 46.2855 60.3369 47.4375 59.2878 48.1986Z" fill="#FF9C08"/>
<path fill-rule="evenodd" clip-rule="evenodd" d="M61.9205 45.2572C61.0976 44.2081 56.5719 44.7635 54.5353 45.0104C53.9182 45.0104 53.8359 44.5372 54.3913 44.1464C57.9913 41.6161 63.9159 42.3361 64.677 43.2001C65.4382 44.0641 64.4919 49.9886 61.0976 52.8275C60.5833 53.2595 60.0896 53.0126 60.3159 52.4572C61.0153 50.5029 62.7228 46.2446 61.9205 45.2572Z" fill="#FF9C08"/>
</svg>
