<?xml version="1.0" encoding="UTF-8"?><svg id="Layer_2" xmlns="http://www.w3.org/2000/svg" viewBox="0 0 539.76 145.64"><defs><style>.cls-1{fill:none;}.cls-2{fill:#223e7d;}.cls-3{fill:#d82127;}</style></defs><g id="Layer_1-2"><path class="cls-1" d="M177.25,4.55c-8.67,0-15.17,6.64-15.17,15.89s6.5,15.82,15.17,15.82,15.17-6.65,15.17-15.82-6.43-15.89-15.17-15.89Z"/><path class="cls-3" d="M25.04,16.76c-7.15-.79-12.71-.22-16.04-2.74-1.23-.94-1.88-2.02-1.88-3.47,0-3.25,3.97-6,10.12-6,5.56,0,10.91,1.95,15.75,5.85l2.82-4.05C30.17,2.24,23.74,0,17.16,0,7.92,0,2.07,4.77,2.07,10.76c0,3.47,1.95,6.28,5.56,8.02,4.12,1.88,9.39,1.95,16.04,2.46,6.07.51,9.1,3.4,9.1,6.94,0,4.62-4.7,8.16-12.14,8.16-5.71,0-11.85-2.24-17.41-6.57l-2.82,4.19c6.07,4.7,12.64,6.86,20.3,6.86,10.98,0,17.19-5.78,17.19-12.5,0-5.92-4.7-10.62-12.86-11.56Z"/><rect class="cls-3" x="47.29" y=".65" width="4.91" height="39.3"/><path class="cls-3" d="M83.12,23.55h10.62v5.71c-3.1,4.7-7.37,7.01-12.79,7.01-8.67,0-15.17-6.58-15.17-15.82s6.5-15.89,15.17-15.89c5.64,0,10.55,2.74,13,7.44l4.05-2.89c-3.68-5.78-9.82-9.1-17.05-9.1-11.63,0-20.15,8.6-20.15,20.44s8.53,20.37,20.15,20.37c7.66,0,13.87-3.54,17.63-10.04v-11.7h-15.46v4.48Z"/><polygon class="cls-3" points="128.56 24.71 112.81 .87 108.33 .87 108.33 39.8 113.1 39.8 113.1 9.39 128.56 32.44 144.02 9.39 144.02 39.8 148.79 39.8 148.79 .87 144.38 .87 128.56 24.71"/><path class="cls-3" d="M177.25,0c-11.63,0-20.15,8.6-20.15,20.44s8.53,20.37,20.15,20.37,20.23-8.52,20.23-20.37S188.88,0,177.25,0ZM177.25,36.27c-8.67,0-15.17-6.58-15.17-15.82s6.5-15.89,15.17-15.89,15.17,6.64,15.17,15.89-6.43,15.82-15.17,15.82Z"/><rect class="cls-3" x="206.08" y=".65" width="4.91" height="39.3"/><path class="cls-3" d="M242.84,1.11c-1.11-.15-2.26-.24-3.46-.24h-16.69v38.94h16.69c.82,0,1.62-.03,2.4-.1,11.51-.95,18.04-8.77,18.04-19.26s-6.4-17.94-16.98-19.33ZM239.75,35.31c-.13,0-.25.01-.37.01h-11.85V5.35h11.85c.13,0,.25.01.37.02,9.45.16,15.08,6.39,15.08,15.01s-5.29,14.78-15.08,14.94Z"/><path class="cls-2" d="M0,108.02c0-22.35,16.57-37.61,37.29-37.61,14.28,0,23.22,6.87,28.89,15.37l-9.27,4.91c-3.82-6.11-11.01-10.58-19.62-10.58-14.72,0-26.06,11.56-26.06,27.91s11.34,27.91,26.06,27.91c8.61,0,15.81-4.47,19.62-10.58l9.27,4.91c-5.78,8.5-14.61,15.37-28.89,15.37-20.71,0-37.29-15.26-37.29-37.61Z"/><path class="cls-2" d="M76.86,71.61h9.81v72.72h-9.81v-72.72Z"/><path class="cls-2" d="M98.99,117.95c0-15.15,10.25-27.58,26.6-27.58s26.6,12.43,26.6,27.58-10.14,27.69-26.6,27.69-26.6-12.43-26.6-27.69ZM141.94,117.95c0-9.92-5.78-18.86-16.35-18.86s-16.35,8.94-16.35,18.86,5.89,18.97,16.35,18.97,16.35-8.94,16.35-18.97Z"/><path class="cls-2" d="M200.16,137.13c-4.03,4.36-10.68,8.5-18.75,8.5-11.23,0-16.79-5.67-16.79-16.79v-37.18h9.81v33.91c0,8.72,4.36,11.34,11.12,11.34,6.11,0,11.67-3.49,14.61-7.41v-37.83h9.81v52.66h-9.81v-7.2Z"/><path class="cls-2" d="M263.07,136.81c-3.92,5.23-10.25,8.83-17.23,8.83-13.74,0-23.55-10.36-23.55-27.58s9.81-27.69,23.55-27.69c6.76,0,12.97,3.27,17.23,8.94v-27.69h9.81v72.72h-9.81v-7.52ZM263.07,106.83c-2.73-4.25-8.61-7.74-14.61-7.74-9.81,0-15.92,7.96-15.92,18.97s6.11,18.86,15.92,18.86c6,0,11.88-3.38,14.61-7.63v-22.46Z"/><path class="cls-2" d="M288.79,71.61h30.64c14.94,0,23.22,10.25,23.22,22.35s-8.39,22.35-23.22,22.35h-19.73v28.02h-10.9v-72.72ZM318.01,81.2h-18.32v25.51h18.32c7.85,0,13.41-5.12,13.41-12.76s-5.56-12.76-13.41-12.76Z"/><path class="cls-2" d="M389.2,137.13c-4.03,4.36-10.68,8.5-18.75,8.5-11.23,0-16.79-5.67-16.79-16.79v-37.18h9.81v33.91c0,8.72,4.36,11.34,11.12,11.34,6.11,0,11.67-3.49,14.61-7.41v-37.83h9.81v52.66h-9.81v-7.2Z"/><path class="cls-2" d="M414.6,71.61h9.81v72.72h-9.81v-72.72Z"/><path class="cls-2" d="M440.11,130.26c3.6,3.92,10.58,7.52,17.66,7.52s11.34-3.05,11.34-7.52c0-5.23-6-6.98-12.76-8.5-8.94-2.07-19.41-4.47-19.41-15.81,0-8.39,7.2-15.59,20.06-15.59,9.05,0,15.59,3.27,20.06,7.52l-4.36,6.87c-3.05-3.71-8.94-6.43-15.59-6.43s-10.79,2.62-10.79,6.87c0,4.58,5.67,6.11,12.21,7.63,9.16,2.07,20.06,4.58,20.06,16.68,0,9.05-7.41,16.14-21.26,16.14-8.83,0-16.57-2.73-21.91-8.18l4.69-7.2Z"/><path class="cls-2" d="M514.14,90.36c15.81,0,25.62,12.32,25.62,28.46v2.4h-41.65c.76,8.94,7.3,16.35,17.88,16.35,5.56,0,11.67-2.18,15.59-6.21l4.58,6.43c-5.23,5.12-12.65,7.85-21.15,7.85-15.7,0-27.26-11.12-27.26-27.69,0-15.26,11.01-27.58,26.38-27.58ZM498,114.13h32.16c-.22-6.98-4.91-15.7-16.03-15.7s-15.59,8.5-16.14,15.7Z"/></g></svg>