<svg width="42" height="42" viewBox="0 0 42 42" fill="none" xmlns="http://www.w3.org/2000/svg">
<path d="M11.3569 34.9412C8.70135 34.9412 6.43599 34.0269 4.56081 32.1984C2.68564 30.3581 1.74805 28.1161 1.74805 25.4722C1.74805 23.201 2.4294 21.1744 3.79211 19.3924C5.16646 17.6104 6.96011 16.4748 9.17305 15.9856C9.90682 13.3068 11.3627 11.1405 13.5407 9.48658C15.7303 7.82105 18.2054 6.98828 20.9657 6.98828C24.3783 6.98828 27.2668 8.17628 29.6311 10.5523C32.0071 12.9166 33.1951 15.8051 33.1951 19.2177C35.2101 19.4506 36.8756 20.3242 38.1917 21.8383C39.5195 23.3291 40.1834 25.0762 40.1834 27.0795C40.1834 29.2691 39.4205 31.1268 37.8947 32.6526C36.369 34.1784 34.5112 34.9412 32.3216 34.9412H11.3569Z" fill="#E12B2B"/>
<path d="M20.965 17.1797C20.009 17.1797 19.0624 17.368 18.1793 17.7338C17.2961 18.0996 16.4936 18.6358 15.8176 19.3118C14.4525 20.6769 13.6855 22.5285 13.6855 24.4591C13.6855 26.3897 14.4525 28.2413 15.8176 29.6064C16.4936 30.2824 17.2961 30.8186 18.1793 31.1844C19.0624 31.5502 20.009 31.7385 20.965 31.7385C22.8956 31.7385 24.7471 30.9716 26.1123 29.6064C27.4774 28.2413 28.2444 26.3897 28.2444 24.4591C28.2444 23.5032 28.0561 22.5566 27.6903 21.6734C27.3244 20.7902 26.7882 19.9877 26.1123 19.3118C25.4363 18.6358 24.6339 18.0996 23.7507 17.7338C22.8675 17.368 21.9209 17.1797 20.965 17.1797ZM20.965 18.6356C22.5095 18.6356 23.9907 19.2491 25.0828 20.3412C26.1749 21.4334 26.7885 22.9146 26.7885 24.4591C26.7885 26.2062 26.0606 27.7348 24.8231 28.8268C23.8039 27.8804 22.4208 27.3709 20.965 27.3709C19.5091 27.3709 18.1988 27.8804 17.1069 28.8268C15.8694 27.7348 15.1414 26.2062 15.1414 24.4591C15.1414 22.9146 15.755 21.4334 16.8471 20.3412C17.9392 19.2491 19.4205 18.6356 20.965 18.6356ZM19.5091 20.0915C19.316 20.0915 19.1309 20.1681 18.9943 20.3047C18.8578 20.4412 18.7811 20.6263 18.7811 20.8194C18.7811 21.0125 18.8578 21.1976 18.9943 21.3341C19.1309 21.4706 19.316 21.5473 19.5091 21.5473C19.7021 21.5473 19.8873 21.4706 20.0238 21.3341C20.1603 21.1976 20.237 21.0125 20.237 20.8194C20.237 20.6263 20.1603 20.4412 20.0238 20.3047C19.8873 20.1681 19.7021 20.0915 19.5091 20.0915ZM22.4208 20.0915C22.2278 20.0915 22.0426 20.1681 21.9061 20.3047C21.7696 20.4412 21.6929 20.6263 21.6929 20.8194C21.6929 21.0125 21.7696 21.1976 21.9061 21.3341C22.0426 21.4706 22.2278 21.5473 22.4208 21.5473C22.6139 21.5473 22.7991 21.4706 22.9356 21.3341C23.0721 21.1976 23.1488 21.0125 23.1488 20.8194C23.1488 20.6263 23.0721 20.4412 22.9356 20.3047C22.7991 20.1681 22.6139 20.0915 22.4208 20.0915ZM24.6702 22.2316C24.5756 22.2316 24.4882 22.2534 24.3863 22.2753L22.0569 23.2362L21.8603 23.3162C21.4527 23.0032 20.8994 22.9159 20.419 23.1124C19.6765 23.4109 19.3125 24.2626 19.6183 25.0051C19.9167 25.7476 20.7684 26.1115 21.5109 25.8058C21.9914 25.6165 22.3335 25.187 22.4208 24.6629L22.5883 24.5901L24.9322 23.6438L24.9468 23.6365C25.3326 23.4837 25.5 23.0615 25.3545 22.6829C25.238 22.4063 24.9686 22.2243 24.6702 22.2316ZM17.3253 22.2753C17.1322 22.2753 16.947 22.352 16.8105 22.4885C16.674 22.625 16.5973 22.8102 16.5973 23.0032C16.5973 23.1963 16.674 23.3814 16.8105 23.518C16.947 23.6545 17.1322 23.7312 17.3253 23.7312C17.5183 23.7312 17.7035 23.6545 17.84 23.518C17.9765 23.3814 18.0532 23.1963 18.0532 23.0032C18.0532 22.8102 17.9765 22.625 17.84 22.4885C17.7035 22.352 17.5183 22.2753 17.3253 22.2753Z" fill="white"/>
</svg>
