<svg width="72" height="72" viewBox="0 0 72 72" fill="none" xmlns="http://www.w3.org/2000/svg">
<path d="M45.8188 23.049L48.1251 23.0884L54.3913 16.8221L54.6951 14.1671C49.7248 9.73911 43.1627 7.04248 35.992 7.04248C23.0095 7.04248 12.052 15.876 8.80859 27.8415C9.49259 27.3645 10.9551 27.7222 10.9551 27.7222L23.4763 25.6635C23.4763 25.6635 24.1198 24.5981 24.4461 24.651C25.9102 23.0424 27.6942 21.7575 29.6838 20.8786C31.6735 19.9996 33.8247 19.546 35.9998 19.5469C39.7123 19.5547 43.1323 20.8665 45.8188 23.0366V23.049Z" fill="#EA4335"/>
<path d="M63.1908 27.8661C61.7362 22.4999 58.738 17.7614 54.6914 14.167L45.8185 23.0399C49.3735 25.9086 51.6539 30.2984 51.6539 35.2124V36.7784C55.9705 36.7784 59.4772 40.2929 59.4772 44.6016C59.4772 48.9182 55.9627 52.4249 51.6539 52.4249H36.0074L34.4414 53.9999V63.3891L36.0074 64.9472H51.6539C57.0474 64.9398 62.2179 62.794 66.0318 58.9803C69.8457 55.1666 71.9918 49.9963 71.9995 44.6027C71.9917 37.6784 68.512 31.5516 63.1908 27.8661Z" fill="#4285F4"/>
<path d="M20.3456 64.9573H35.9831V52.4248H20.3456C19.2346 52.425 18.1366 52.1864 17.1259 51.7251L14.868 52.417L8.60173 58.6832L8.05273 60.7982C11.584 63.4922 15.903 64.9504 20.3445 64.9483L20.3456 64.9573Z" fill="#34A853"/>
<path d="M20.3456 24.2656C14.9521 24.2731 9.78161 26.4189 5.96771 30.2325C2.15381 34.0462 0.00773819 39.2166 0 44.6101C0 51.2172 3.16462 57.092 8.06175 60.8135L17.1337 51.7415C15.7606 51.1223 14.5952 50.1202 13.7773 48.8553C12.9593 47.5904 12.5236 46.1164 12.5224 44.6101C12.5224 40.2935 16.0369 36.7869 20.3456 36.7869C23.5181 36.7869 26.2451 38.6994 27.4781 41.3994L36.5501 32.3274C32.8298 27.4303 26.9539 24.2656 20.3468 24.2656H20.3456Z" fill="#FBBC05"/>
</svg>
