<svg width="315" height="63" viewBox="0 0 315 63" fill="none" xmlns="http://www.w3.org/2000/svg">
<path d="M16.6751 52.154C12.7757 52.154 9.44926 50.7894 6.69573 48.06C3.94219 45.3132 2.56543 41.9666 2.56543 38.0203C2.56543 34.6303 3.56594 31.6053 5.56695 28.9455C7.58506 26.2856 10.2189 24.5906 13.4684 23.8605C14.5459 19.862 16.6837 16.6284 19.8819 14.1598C23.0972 11.6738 26.7315 10.4308 30.7848 10.4308C35.7959 10.4308 40.0374 12.204 43.5092 15.7505C46.9982 19.2796 48.7426 23.591 48.7426 28.6847C51.7014 29.0324 54.1471 30.3363 56.0797 32.5963C58.0294 34.8215 59.0043 37.4292 59.0043 40.4194C59.0043 43.6877 57.884 46.4606 55.6436 48.738C53.4031 51.0154 50.6753 52.154 47.4599 52.154H16.6751Z" fill="#2F27CE"/>
<path d="M30.7845 21.9481C29.2404 21.9481 27.7114 22.2573 26.2848 22.8579C24.8583 23.4586 23.5621 24.3389 22.4702 25.4488C20.2652 27.6902 19.0264 30.7302 19.0264 33.9001C19.0264 37.07 20.2652 40.11 22.4702 42.3514C23.5621 43.4613 24.8583 44.3416 26.2848 44.9423C27.7114 45.5429 29.2404 45.8521 30.7845 45.8521C33.9029 45.8521 36.8936 44.5929 39.0987 42.3514C41.3037 40.11 42.5425 37.07 42.5425 33.9001C42.5425 32.3305 42.2384 30.7764 41.6475 29.3263C41.0566 27.8762 40.1905 26.5586 39.0987 25.4488C38.0068 24.3389 36.7106 23.4586 35.2841 22.8579C33.8575 22.2573 32.3285 21.9481 30.7845 21.9481ZM30.7845 24.3385C33.2792 24.3385 35.6718 25.3459 37.4358 27.139C39.1999 28.9322 40.1909 31.3642 40.1909 33.9001C40.1909 36.7686 39.0151 39.2785 37.0162 41.0713C35.3701 39.5175 33.1361 38.6809 30.7845 38.6809C28.4328 38.6809 26.3164 39.5175 24.5527 41.0713C22.5538 39.2785 21.378 36.7686 21.378 33.9001C21.378 31.3642 22.369 28.9322 24.1331 27.139C25.8971 25.3459 28.2897 24.3385 30.7845 24.3385ZM28.4328 26.7289C28.121 26.7289 27.8219 26.8548 27.6014 27.079C27.3809 27.3031 27.257 27.6071 27.257 27.9241C27.257 28.2411 27.3809 28.5451 27.6014 28.7692C27.8219 28.9934 28.121 29.1193 28.4328 29.1193C28.7447 29.1193 29.0438 28.9934 29.2643 28.7692C29.4848 28.5451 29.6086 28.2411 29.6086 27.9241C29.6086 27.6071 29.4848 27.3031 29.2643 27.079C29.0438 26.8548 28.7447 26.7289 28.4328 26.7289ZM33.1361 26.7289C32.8242 26.7289 32.5252 26.8548 32.3046 27.079C32.0841 27.3031 31.9603 27.6071 31.9603 27.9241C31.9603 28.2411 32.0841 28.5451 32.3046 28.7692C32.5252 28.9934 32.8242 29.1193 33.1361 29.1193C33.4479 29.1193 33.747 28.9934 33.9675 28.7692C34.188 28.5451 34.3119 28.2411 34.3119 27.9241C34.3119 27.6071 34.188 27.3031 33.9675 27.079C33.747 26.8548 33.4479 26.7289 33.1361 26.7289ZM36.7693 30.2428C36.6165 30.2428 36.4754 30.2786 36.3108 30.3145L32.5482 31.8922L32.2307 32.0236C31.5722 31.5097 30.6786 31.3663 29.9026 31.689C28.7033 32.179 28.1154 33.5774 28.6092 34.7965C29.0913 36.0156 30.467 36.6132 31.6663 36.1112C32.4423 35.8005 32.995 35.0953 33.1361 34.2348L33.4065 34.1152L37.1926 32.5615L37.2161 32.5495C37.8393 32.2985 38.1097 31.6053 37.8746 30.9838C37.6865 30.5296 37.2514 30.2308 36.7693 30.2428ZM24.9054 30.3145C24.5936 30.3145 24.2945 30.4404 24.074 30.6646C23.8535 30.8887 23.7296 31.1927 23.7296 31.5097C23.7296 31.8267 23.8535 32.1307 24.074 32.3548C24.2945 32.579 24.5936 32.7049 24.9054 32.7049C25.2173 32.7049 25.5163 32.579 25.7368 32.3548C25.9573 32.1307 26.0812 31.8267 26.0812 31.5097C26.0812 31.1927 25.9573 30.8887 25.7368 30.6646C25.5163 30.4404 25.2173 30.3145 24.9054 30.3145Z" fill="white"/>
<path d="M89.7574 47.2541C86.525 47.2541 83.6697 46.5615 81.1915 45.1762C78.7134 43.7909 76.7739 41.8437 75.3732 39.3348C73.9725 36.8104 73.2721 33.8474 73.2721 30.4456C73.2721 27.0439 73.9879 24.0886 75.4194 21.5796C76.8509 19.0553 78.8211 17.1004 81.3301 15.7151C83.839 14.3298 86.7097 13.6371 89.9421 13.6371C91.6199 13.6371 93.1822 13.8218 94.6291 14.1913C96.076 14.5453 97.3305 14.9917 98.3926 15.5304L97.8153 20.5868C96.6455 20.0481 95.4141 19.6017 94.1212 19.2477C92.8282 18.8782 91.4198 18.6935 89.8959 18.6935C87.5255 18.6935 85.5399 19.2092 83.9391 20.2405C82.3537 21.2564 81.1531 22.6571 80.3373 24.4426C79.5369 26.2127 79.1367 28.2137 79.1367 30.4456C79.1367 32.6775 79.5292 34.6862 80.3142 36.4718C81.1146 38.2419 82.2998 39.6426 83.8698 40.6739C85.4552 41.6898 87.4178 42.1977 89.7574 42.1977C91.3274 42.1977 92.7512 42.0284 94.0288 41.6898C95.3218 41.3512 96.5839 40.8894 97.8153 40.3045L98.3926 45.384C97.1919 45.9381 95.8682 46.3845 94.4213 46.7231C92.9744 47.0771 91.4198 47.2541 89.7574 47.2541ZM108.428 47.0694C107.027 47.0694 105.888 46.8001 105.011 46.2613C104.149 45.7226 103.518 45.0146 103.118 44.1372C102.718 43.2444 102.517 42.2747 102.517 41.228V11.9748H107.689V38.873C107.689 40.1198 107.766 41.0279 107.92 41.5974C108.074 42.1516 108.367 42.5056 108.798 42.6595C109.244 42.798 109.906 42.8673 110.783 42.8673L110.229 47.0694H108.428ZM124.269 47.0694C121.806 47.0694 119.705 46.5307 117.966 45.4532C116.242 44.3758 114.918 42.9366 113.995 41.1357C113.087 39.3348 112.632 37.3491 112.632 35.1788C112.632 33.0085 113.087 31.0152 113.995 29.1989C114.918 27.3826 116.242 25.9357 117.966 24.8582C119.705 23.7653 121.806 23.2189 124.269 23.2189C126.717 23.2189 128.81 23.7653 130.549 24.8582C132.289 25.9357 133.612 27.3826 134.52 29.1989C135.444 31.0152 135.906 33.0085 135.906 35.1788C135.906 37.3491 135.444 39.3348 134.52 41.1357C133.612 42.9366 132.289 44.3758 130.549 45.4532C128.81 46.5307 126.717 47.0694 124.269 47.0694ZM124.269 42.7288C126.301 42.7288 127.863 42.0438 128.956 40.6739C130.064 39.2886 130.618 37.4569 130.618 35.1788C130.618 32.8699 130.064 31.0229 128.956 29.6375C127.863 28.2522 126.301 27.5596 124.269 27.5596C122.237 27.5596 120.667 28.2522 119.559 29.6375C118.451 31.0229 117.897 32.8699 117.897 35.1788C117.897 37.4569 118.451 39.2886 119.559 40.6739C120.667 42.0438 122.237 42.7288 124.269 42.7288ZM149.02 47.0694C146.85 47.0694 145.08 46.6385 143.71 45.7765C142.34 44.8991 141.332 43.6677 140.685 42.0823C140.054 40.4815 139.738 38.5805 139.738 36.3794V23.6807H144.887V35.9638C144.887 38.1957 145.264 39.8735 146.019 40.9971C146.788 42.1054 148.02 42.6595 149.713 42.6595C151.006 42.6595 152.122 42.3517 153.061 41.736C154 41.1203 154.731 40.2198 155.254 39.0346L154.377 41.6898V23.6807H159.525V46.6077H154.792L154.307 42.4286L155.508 43.7447C154.877 44.699 153.984 45.4917 152.83 46.1228C151.675 46.7539 150.405 47.0694 149.02 47.0694ZM174.186 47.0694C172.001 47.0694 170.115 46.5307 168.53 45.4532C166.96 44.3758 165.751 42.9366 164.905 41.1357C164.058 39.3348 163.635 37.3568 163.635 35.2019C163.635 33.0623 164.043 31.0921 164.859 29.2912C165.674 27.4749 166.867 26.0203 168.437 24.9275C170.023 23.8346 171.939 23.2882 174.186 23.2882C175.818 23.2882 177.257 23.5883 178.504 24.1886C179.766 24.7735 180.844 25.6201 181.736 26.7284L180.536 27.7212V11.9748H185.684V46.6077H180.905L180.443 42.3594L181.898 43.3983C180.959 44.5682 179.866 45.4763 178.619 46.1228C177.373 46.7539 175.895 47.0694 174.186 47.0694ZM174.994 42.7288C176.18 42.7288 177.211 42.4363 178.088 41.8514C178.966 41.2665 179.651 40.4122 180.143 39.2886C180.636 38.1649 180.882 36.8027 180.882 35.2019C180.882 33.6319 180.636 32.285 180.143 31.1614C179.651 30.0223 178.966 29.1527 178.088 28.5524C177.211 27.9367 176.18 27.6288 174.994 27.6288C173.717 27.6288 172.624 27.9521 171.716 28.5986C170.808 29.245 170.107 30.1378 169.615 31.2768C169.138 32.4159 168.899 33.7242 168.899 35.2019C168.899 36.6334 169.138 37.9187 169.615 39.0577C170.107 40.1967 170.808 41.0972 171.716 41.7591C172.624 42.4055 173.717 42.7288 174.994 42.7288Z" fill="#2F27CE"/>
<path d="M200.855 46.6077L205.288 14.2836H209.721L217.849 29.4759L225.884 14.2836H230.363L234.773 46.6077H229.185L226.022 21.5565L227.477 21.8336L217.849 39.4964L208.151 21.8567L209.606 21.6027L206.443 46.6077H200.855ZM250.034 47.0694C247.294 47.0694 245.001 46.5153 243.154 45.4071C241.322 44.2988 239.937 42.8365 238.998 41.0202C238.074 39.1885 237.613 37.1798 237.613 34.9941C237.613 32.8853 238.044 30.9459 238.905 29.1758C239.783 27.3902 241.053 25.9664 242.715 24.9044C244.393 23.8269 246.425 23.2882 248.81 23.2882C250.904 23.2882 252.689 23.7115 254.167 24.558C255.645 25.4046 256.768 26.5744 257.538 28.0675C258.323 29.5452 258.716 31.2383 258.716 33.147C258.716 33.578 258.685 34.0321 258.623 34.5092C258.577 34.971 258.508 35.4482 258.415 35.9407H242.946C243.161 37.6185 243.631 38.9499 244.354 39.9351C245.078 40.9202 245.978 41.6359 247.056 42.0823C248.133 42.5133 249.295 42.7288 250.542 42.7288C251.774 42.7288 252.959 42.5826 254.098 42.2901C255.252 41.9822 256.322 41.5667 257.307 41.0433L257.7 45.3147C256.822 45.7457 255.737 46.1459 254.444 46.5153C253.151 46.8847 251.681 47.0694 250.034 47.0694ZM243.177 32.4313H253.451C253.451 31.6001 253.29 30.8228 252.966 30.0993C252.659 29.3605 252.158 28.7679 251.466 28.3215C250.788 27.8597 249.896 27.6288 248.787 27.6288C247.171 27.6288 245.909 28.0675 245.001 28.9449C244.108 29.8222 243.5 30.9844 243.177 32.4313ZM270.36 47.0694C268.913 47.0694 267.743 46.7847 266.851 46.2152C265.958 45.6456 265.304 44.9222 264.888 44.0448C264.473 43.1521 264.265 42.2208 264.265 41.2511V27.8597H260.755L261.217 23.6807H264.265V18.4165L269.413 17.8854V23.6807H274.816V27.8597H269.413V38.8268C269.413 40.1044 269.49 41.0279 269.644 41.5974C269.798 42.1516 270.152 42.5056 270.706 42.6595C271.261 42.798 272.153 42.8673 273.385 42.8673H274.77L274.331 47.0694H270.36ZM289.492 47.0694C286.752 47.0694 284.459 46.5153 282.612 45.4071C280.78 44.2988 279.395 42.8365 278.456 41.0202C277.532 39.1885 277.071 37.1798 277.071 34.9941C277.071 32.8853 277.502 30.9459 278.364 29.1758C279.241 27.3902 280.511 25.9664 282.173 24.9044C283.851 23.8269 285.883 23.2882 288.269 23.2882C290.362 23.2882 292.147 23.7115 293.625 24.558C295.103 25.4046 296.226 26.5744 296.996 28.0675C297.781 29.5452 298.174 31.2383 298.174 33.147C298.174 33.578 298.143 34.0321 298.081 34.5092C298.035 34.971 297.966 35.4482 297.873 35.9407H282.404C282.62 37.6185 283.089 38.9499 283.812 39.9351C284.536 40.9202 285.436 41.6359 286.514 42.0823C287.591 42.5133 288.753 42.7288 290 42.7288C291.232 42.7288 292.417 42.5826 293.556 42.2901C294.71 41.9822 295.78 41.5667 296.765 41.0433L297.158 45.3147C296.28 45.7457 295.195 46.1459 293.902 46.5153C292.609 46.8847 291.139 47.0694 289.492 47.0694ZM282.635 32.4313H292.909C292.909 31.6001 292.748 30.8228 292.425 30.0993C292.117 29.3605 291.616 28.7679 290.924 28.3215C290.246 27.8597 289.354 27.6288 288.245 27.6288C286.629 27.6288 285.367 28.0675 284.459 28.9449C283.566 29.8222 282.958 30.9844 282.635 32.4313ZM302.176 46.6077V23.6807H306.84L307.094 26.6129C307.894 25.674 308.825 24.8736 309.887 24.2117C310.95 23.5498 312.096 23.2189 313.328 23.2189C313.697 23.2189 314.043 23.2574 314.367 23.3343L313.951 28.5755C313.659 28.4985 313.366 28.4523 313.074 28.4369C312.781 28.4061 312.481 28.3908 312.173 28.3908C311.127 28.3908 310.164 28.6293 309.287 29.1065C308.41 29.5837 307.794 30.1378 307.44 30.7689V46.6077H302.176Z" fill="#424242"/>
</svg>
