<svg width="1565" height="1559" viewBox="0 0 1565 1559" fill="none" xmlns="http://www.w3.org/2000/svg">
<path fill-rule="evenodd" clip-rule="evenodd" d="M522.391 807.57C515.391 830.07 500.201 850.06 477.831 862.84L146.481 1052.69C99.6812 1079.39 40.0612 1063.56 13.2012 1017.38C-13.8288 970.94 2.08124 911.86 48.8412 885.08L234.021 779.17L48.8412 672.98C2.08124 646.24 -13.9088 587.15 13.2012 540.88C40.0612 494.58 99.6812 478.7 146.481 505.4L477.831 695.13C501.131 708.46 516.701 729.6 523.241 753.24C525.441 760.84 526.421 768.44 526.801 776.08C527.061 786.6 525.701 797.26 522.391 807.57ZM612.301 985.38C662.761 988.98 702.601 1030.84 702.601 1081.77V1461.36C702.601 1514.89 658.811 1558.22 605.051 1558.22C551.031 1558.22 507.411 1514.89 507.411 1461.36V1249.05L321.601 1355.29C275.011 1382.2 215.431 1366.28 188.361 1320.06C161.461 1273.75 177.371 1214.37 224.051 1187.63L555.661 998.02C573.481 987.71 593.251 983.76 612.301 985.38ZM951.931 572.85C901.351 569.15 861.591 527.22 861.591 476.33V96.69C861.591 43.34 905.131 0 959.191 0C1013.2 0 1056.83 43.34 1056.83 96.69V309.13L1242.51 202.72C1289.19 175.98 1348.8 191.85 1375.71 238.08C1402.56 284.56 1386.74 343.68 1340.02 370.42L1008.45 560.2C990.631 570.38 970.901 574.37 951.931 572.85ZM224.051 370.42C177.371 343.68 161.461 284.56 188.361 238.08C215.431 191.85 275.011 175.98 321.601 202.72L507.411 309.13V96.69C507.411 43.34 551.031 0 605.051 0C658.811 0 702.601 43.34 702.601 96.69V476.33C702.601 527.22 662.761 569.15 612.301 572.85C593.251 574.37 573.481 570.38 555.661 560.2L224.051 370.42ZM819.591 952.74C815.641 956.77 808.041 960.04 802.271 960.04H761.751C756.191 960.04 748.471 956.77 744.441 952.74L606.701 816.27C602.761 812.41 599.571 804.68 599.571 799.25V758.97C599.571 753.41 602.761 745.69 606.701 741.78L744.441 605.27C748.471 601.29 756.191 598.1 761.751 598.1H802.271C807.921 598.1 815.641 601.29 819.591 605.27L957.411 741.78C961.351 745.69 964.531 753.41 964.531 758.97V799.25C964.531 804.68 961.351 812.41 957.411 816.27L819.591 952.74ZM847.251 778.37C847.251 772.85 843.901 765.17 839.951 761.09L800.021 721.7C796.121 717.8 788.361 714.57 782.801 714.57H781.231C775.671 714.57 767.951 717.8 764.081 721.7L724.161 761.09C720.171 765.17 717.111 772.85 717.111 778.37V779.94C717.111 785.37 720.171 792.97 724.161 796.96L764.081 836.43C767.991 840.34 775.671 843.56 781.231 843.56H782.801C788.361 843.56 796.121 840.34 800.021 836.43L839.951 796.96C843.901 792.97 847.251 785.37 847.251 779.94V778.37ZM1340.02 1187.63C1386.74 1214.37 1402.56 1273.75 1375.71 1320.06C1348.8 1366.28 1289.14 1382.2 1242.51 1355.29L1056.83 1249.05V1461.36C1056.83 1514.89 1013.2 1558.22 959.191 1558.22C905.131 1558.22 861.591 1514.89 861.591 1461.36V1081.77C861.591 1030.84 901.351 988.98 951.931 985.38C970.901 983.76 990.631 987.71 1008.45 998.02L1340.02 1187.63ZM1330.13 779.17L1515.31 885.08C1562.07 911.86 1578.07 970.94 1551.04 1017.38C1524.05 1063.56 1464.35 1079.39 1417.76 1052.69L1086.15 862.84C1064 850.06 1048.68 830.07 1041.85 807.57C1038.62 797.26 1037.09 786.6 1037.48 776.08C1037.65 768.44 1038.79 760.84 1040.91 753.24C1047.53 729.6 1063.11 708.46 1086.15 695.13L1417.76 505.4C1464.35 478.7 1524.05 494.58 1551.04 540.88C1578.07 587.15 1562.07 646.24 1515.31 672.98L1330.13 779.17Z" fill="#29B5E8"/>
</svg>
