<svg width="667" height="259" viewBox="0 0 667 259" fill="none" xmlns="http://www.w3.org/2000/svg">
<mask id="path-1-outside-1_1375_6453" maskUnits="userSpaceOnUse" x="282" y="162" width="247" height="64" fill="black">
<rect fill="white" x="282" y="162" width="247" height="64"/>
<path d="M349.393 163.961V224H337.351V184.949L321.266 224H312.148L295.977 184.949V224H283.935V163.961H297.612L316.707 208.603L335.803 163.961H349.393ZM405.597 199.141C405.597 200.862 405.482 202.41 405.253 203.786H370.416C370.703 207.227 371.907 209.922 374.029 211.872C376.151 213.821 378.76 214.796 381.856 214.796C386.329 214.796 389.512 212.875 391.404 209.033H404.393C403.016 213.621 400.379 217.405 396.479 220.387C392.58 223.312 387.792 224.774 382.115 224.774C377.527 224.774 373.398 223.771 369.728 221.764C366.116 219.699 363.277 216.803 361.213 213.076C359.206 209.349 358.202 205.048 358.202 200.174C358.202 195.242 359.206 190.913 361.213 187.185C363.22 183.458 366.03 180.591 369.642 178.584C373.255 176.577 377.412 175.573 382.115 175.573C386.645 175.573 390.687 176.548 394.243 178.498C397.855 180.447 400.637 183.229 402.586 186.841C404.593 190.397 405.597 194.497 405.597 199.141ZM393.125 195.701C393.067 192.604 391.949 190.139 389.77 188.304C387.591 186.411 384.924 185.465 381.77 185.465C378.789 185.465 376.265 186.382 374.201 188.217C372.194 189.995 370.961 192.49 370.502 195.701H393.125ZM428.407 186.239V209.291C428.407 210.897 428.78 212.072 429.525 212.818C430.328 213.506 431.647 213.85 433.482 213.85H439.073V224H431.504C421.354 224 416.279 219.068 416.279 209.205V186.239H410.602V176.347H416.279V164.563H428.407V176.347H439.073V186.239H428.407ZM492.032 199.141C492.032 200.862 491.918 202.41 491.688 203.786H456.852C457.139 207.227 458.343 209.922 460.465 211.872C462.586 213.821 465.196 214.796 468.292 214.796C472.765 214.796 475.947 212.875 477.84 209.033H490.828C489.452 213.621 486.814 217.405 482.915 220.387C479.015 223.312 474.227 224.774 468.55 224.774C463.963 224.774 459.834 223.771 456.164 221.764C452.551 219.699 449.713 216.803 447.648 213.076C445.641 209.349 444.638 205.048 444.638 200.174C444.638 195.242 445.641 190.913 447.648 187.185C449.655 183.458 452.465 180.591 456.078 178.584C459.691 176.577 463.848 175.573 468.55 175.573C473.08 175.573 477.123 176.548 480.678 178.498C484.291 180.447 487.072 183.229 489.022 186.841C491.029 190.397 492.032 194.497 492.032 199.141ZM479.56 195.701C479.503 192.604 478.385 190.139 476.206 188.304C474.026 186.411 471.36 185.465 468.206 185.465C465.224 185.465 462.701 186.382 460.637 188.217C458.63 189.995 457.397 192.49 456.938 195.701H479.56ZM512.864 183.745C514.413 181.222 516.42 179.243 518.885 177.81C521.409 176.376 524.276 175.659 527.487 175.659V188.304H524.304C520.52 188.304 517.653 189.192 515.703 190.97C513.81 192.748 512.864 195.844 512.864 200.26V224H500.822V176.347H512.864V183.745Z"/>
</mask>
<path d="M349.393 163.961H350.393V162.961H349.393V163.961ZM349.393 224V225H350.393V224H349.393ZM337.351 224H336.351V225H337.351V224ZM337.351 184.949H338.351L336.426 184.568L337.351 184.949ZM321.266 224V225H321.935L322.19 224.381L321.266 224ZM312.148 224L311.224 224.383L311.48 225H312.148V224ZM295.977 184.949L296.901 184.566L294.977 184.949H295.977ZM295.977 224V225H296.977V224H295.977ZM283.935 224H282.935V225H283.935V224ZM283.935 163.961V162.961H282.935V163.961H283.935ZM297.612 163.961L298.531 163.568L298.271 162.961H297.612V163.961ZM316.707 208.603L315.788 208.996L316.707 211.146L317.626 208.996L316.707 208.603ZM335.803 163.961V162.961H335.143L334.883 163.568L335.803 163.961ZM348.393 163.961V224H350.393V163.961H348.393ZM349.393 223H337.351V225H349.393V223ZM338.351 224V184.949H336.351V224H338.351ZM336.426 184.568L320.341 223.619L322.19 224.381L338.275 185.33L336.426 184.568ZM321.266 223H312.148V225H321.266V223ZM313.072 223.617L296.901 184.566L295.053 185.331L311.224 224.383L313.072 223.617ZM294.977 184.949V224H296.977V184.949H294.977ZM295.977 223H283.935V225H295.977V223ZM284.935 224V163.961H282.935V224H284.935ZM283.935 164.961H297.612V162.961H283.935V164.961ZM296.692 164.354L315.788 208.996L317.626 208.21L298.531 163.568L296.692 164.354ZM317.626 208.996L336.722 164.354L334.883 163.568L315.788 208.21L317.626 208.996ZM335.803 164.961H349.393V162.961H335.803V164.961ZM405.253 203.786V204.786H406.1L406.239 203.951L405.253 203.786ZM370.416 203.786V202.786H369.33L369.42 203.869L370.416 203.786ZM374.029 211.872L373.352 212.608L373.352 212.608L374.029 211.872ZM391.404 209.033V208.033H390.782L390.507 208.591L391.404 209.033ZM404.393 209.033L405.35 209.321L405.737 208.033H404.393V209.033ZM396.479 220.387L397.079 221.187L397.087 221.182L396.479 220.387ZM369.728 221.764L369.232 222.632L369.24 222.636L369.248 222.641L369.728 221.764ZM361.213 213.076L360.332 213.55L360.338 213.561L361.213 213.076ZM361.213 187.185L360.332 186.711L360.332 186.711L361.213 187.185ZM369.642 178.584L370.128 179.458L370.128 179.458L369.642 178.584ZM394.243 178.498L393.762 179.375L393.768 179.378L394.243 178.498ZM402.586 186.841L401.706 187.316L401.711 187.325L401.715 187.333L402.586 186.841ZM393.125 195.701V196.701H394.143L394.124 195.682L393.125 195.701ZM389.77 188.304L389.114 189.059L389.12 189.064L389.126 189.068L389.77 188.304ZM374.201 188.217L374.864 188.966L374.865 188.965L374.201 188.217ZM370.502 195.701L369.512 195.559L369.349 196.701H370.502V195.701ZM404.597 199.141C404.597 200.819 404.485 202.311 404.266 203.622L406.239 203.951C406.479 202.509 406.597 200.905 406.597 199.141H404.597ZM405.253 202.786H370.416V204.786H405.253V202.786ZM369.42 203.869C369.723 207.508 371.01 210.456 373.352 212.608L374.706 211.135C372.804 209.388 371.683 206.946 371.413 203.703L369.42 203.869ZM373.352 212.608C375.673 214.741 378.53 215.796 381.856 215.796V213.796C378.99 213.796 376.628 212.902 374.706 211.135L373.352 212.608ZM381.856 215.796C384.238 215.796 386.339 215.284 388.115 214.212C389.894 213.138 391.284 211.541 392.301 209.475L390.507 208.591C389.632 210.368 388.485 211.652 387.081 212.499C385.675 213.348 383.948 213.796 381.856 213.796V215.796ZM391.404 210.033H404.393V208.033H391.404V210.033ZM403.435 208.746C402.121 213.126 399.608 216.736 395.872 219.593L397.087 221.182C401.149 218.075 403.912 214.115 405.35 209.321L403.435 208.746ZM395.879 219.587C392.18 222.361 387.612 223.774 382.115 223.774V225.774C387.971 225.774 392.979 224.262 397.079 221.187L395.879 219.587ZM382.115 223.774C377.678 223.774 373.717 222.805 370.208 220.886L369.248 222.641C373.079 224.736 377.376 225.774 382.115 225.774V223.774ZM370.224 220.895C366.775 218.924 364.065 216.163 362.088 212.592L360.338 213.561C362.489 217.444 365.457 220.474 369.232 222.632L370.224 220.895ZM362.093 212.602C360.176 209.041 359.202 204.908 359.202 200.174H357.202C357.202 205.188 358.236 209.656 360.332 213.55L362.093 212.602ZM359.202 200.174C359.202 195.38 360.177 191.219 362.093 187.659L360.332 186.711C358.235 190.607 357.202 195.104 357.202 200.174H359.202ZM362.093 187.659C364.012 184.096 366.687 181.37 370.128 179.458L369.157 177.71C365.373 179.812 362.428 182.82 360.332 186.711L362.093 187.659ZM370.128 179.458C373.573 177.544 377.559 176.573 382.115 176.573V174.573C377.266 174.573 372.937 175.609 369.157 177.71L370.128 179.458ZM382.115 176.573C386.497 176.573 390.371 177.515 393.762 179.375L394.724 177.621C391.004 175.581 386.793 174.573 382.115 174.573V176.573ZM393.768 179.378C397.209 181.235 399.849 183.875 401.706 187.316L403.466 186.366C401.424 182.582 398.502 179.66 394.718 177.618L393.768 179.378ZM401.715 187.333C403.627 190.718 404.597 194.645 404.597 199.141H406.597C406.597 194.348 405.56 190.075 403.457 186.35L401.715 187.333ZM394.124 195.682C394.062 192.326 392.835 189.577 390.414 187.539L389.126 189.068C391.063 190.7 392.072 192.883 392.125 195.719L394.124 195.682ZM390.426 187.548C388.047 185.483 385.141 184.465 381.77 184.465V186.465C384.708 186.465 387.134 187.339 389.114 189.059L390.426 187.548ZM381.77 184.465C378.565 184.465 375.799 185.459 373.537 187.47L374.865 188.965C376.732 187.306 379.012 186.465 381.77 186.465V184.465ZM373.538 187.469C371.318 189.435 369.997 192.165 369.512 195.559L371.492 195.842C371.925 192.814 373.07 190.555 374.864 188.966L373.538 187.469ZM370.502 196.701H393.125V194.701H370.502V196.701ZM428.407 186.239V185.239H427.407V186.239H428.407ZM429.525 212.818L428.818 213.525L428.845 213.552L428.874 213.577L429.525 212.818ZM439.073 213.85H440.073V212.85H439.073V213.85ZM439.073 224V225H440.073V224H439.073ZM416.279 186.239H417.279V185.239H416.279V186.239ZM410.602 186.239H409.602V187.239H410.602V186.239ZM410.602 176.347V175.347H409.602V176.347H410.602ZM416.279 176.347V177.347H417.279V176.347H416.279ZM416.279 164.563V163.563H415.279V164.563H416.279ZM428.407 164.563H429.407V163.563H428.407V164.563ZM428.407 176.347H427.407V177.347H428.407V176.347ZM439.073 176.347H440.073V175.347H439.073V176.347ZM439.073 186.239V187.239H440.073V186.239H439.073ZM427.407 186.239V209.291H429.407V186.239H427.407ZM427.407 209.291C427.407 211.026 427.807 212.514 428.818 213.525L430.232 212.111C429.753 211.631 429.407 210.768 429.407 209.291H427.407ZM428.874 213.577C429.951 214.5 431.568 214.85 433.482 214.85V212.85C431.726 212.85 430.705 212.512 430.176 212.059L428.874 213.577ZM433.482 214.85H439.073V212.85H433.482V214.85ZM438.073 213.85V224H440.073V213.85H438.073ZM439.073 223H431.504V225H439.073V223ZM431.504 223C426.576 223 423.065 221.803 420.782 219.584C418.504 217.371 417.279 213.975 417.279 209.205H415.279C415.279 214.298 416.591 218.3 419.388 221.018C422.18 223.732 426.282 225 431.504 225V223ZM417.279 209.205V186.239H415.279V209.205H417.279ZM416.279 185.239H410.602V187.239H416.279V185.239ZM411.602 186.239V176.347H409.602V186.239H411.602ZM410.602 177.347H416.279V175.347H410.602V177.347ZM417.279 176.347V164.563H415.279V176.347H417.279ZM416.279 165.563H428.407V163.563H416.279V165.563ZM427.407 164.563V176.347H429.407V164.563H427.407ZM428.407 177.347H439.073V175.347H428.407V177.347ZM438.073 176.347V186.239H440.073V176.347H438.073ZM439.073 185.239H428.407V187.239H439.073V185.239ZM491.688 203.786V204.786H492.535L492.675 203.951L491.688 203.786ZM456.852 203.786V202.786H455.765L455.855 203.869L456.852 203.786ZM460.465 211.872L459.788 212.608L459.788 212.608L460.465 211.872ZM477.84 209.033V208.033H477.218L476.943 208.591L477.84 209.033ZM490.828 209.033L491.786 209.321L492.172 208.033H490.828V209.033ZM482.915 220.387L483.515 221.187L483.522 221.182L482.915 220.387ZM456.164 221.764L455.668 222.632L455.676 222.636L455.684 222.641L456.164 221.764ZM447.648 213.076L446.768 213.55L446.774 213.561L447.648 213.076ZM447.648 187.185L446.768 186.711L446.768 186.711L447.648 187.185ZM456.078 178.584L456.564 179.458L456.564 179.458L456.078 178.584ZM480.678 178.498L480.198 179.375L480.203 179.378L480.678 178.498ZM489.022 186.841L488.142 187.316L488.146 187.325L488.151 187.333L489.022 186.841ZM479.56 195.701V196.701H480.579L480.56 195.682L479.56 195.701ZM476.206 188.304L475.55 189.059L475.556 189.064L475.561 189.068L476.206 188.304ZM460.637 188.217L461.3 188.966L461.301 188.965L460.637 188.217ZM456.938 195.701L455.948 195.559L455.785 196.701H456.938V195.701ZM491.032 199.141C491.032 200.819 490.92 202.311 490.702 203.622L492.675 203.951C492.915 202.509 493.032 200.905 493.032 199.141H491.032ZM491.688 202.786H456.852V204.786H491.688V202.786ZM455.855 203.869C456.159 207.508 457.446 210.456 459.788 212.608L461.141 211.135C459.24 209.388 458.119 206.946 457.849 203.703L455.855 203.869ZM459.788 212.608C462.109 214.741 464.965 215.796 468.292 215.796V213.796C465.426 213.796 463.064 212.902 461.141 211.135L459.788 212.608ZM468.292 215.796C470.673 215.796 472.774 215.284 474.55 214.212C476.329 213.138 477.719 211.541 478.737 209.475L476.943 208.591C476.068 210.368 474.921 211.652 473.517 212.499C472.111 213.348 470.384 213.796 468.292 213.796V215.796ZM477.84 210.033H490.828V208.033H477.84V210.033ZM489.87 208.746C488.556 213.126 486.044 216.736 482.307 219.593L483.522 221.182C487.584 218.075 490.348 214.115 491.786 209.321L489.87 208.746ZM482.315 219.587C478.616 222.361 474.048 223.774 468.55 223.774V225.774C474.407 225.774 479.415 224.262 483.515 221.187L482.315 219.587ZM468.55 223.774C464.114 223.774 460.153 222.805 456.644 220.886L455.684 222.641C459.515 224.736 463.812 225.774 468.55 225.774V223.774ZM456.66 220.895C453.21 218.924 450.501 216.163 448.523 212.592L446.774 213.561C448.924 217.444 451.892 220.474 455.668 222.632L456.66 220.895ZM448.529 212.602C446.611 209.041 445.638 204.908 445.638 200.174H443.638C443.638 205.188 444.671 209.656 446.768 213.55L448.529 212.602ZM445.638 200.174C445.638 195.38 446.612 191.219 448.529 187.659L446.768 186.711C444.67 190.607 443.638 195.104 443.638 200.174H445.638ZM448.529 187.659C450.448 184.096 453.122 181.37 456.564 179.458L455.592 177.71C451.808 179.812 448.863 182.82 446.768 186.711L448.529 187.659ZM456.564 179.458C460.008 177.544 463.994 176.573 468.55 176.573V174.573C463.702 174.573 459.373 175.609 455.592 177.71L456.564 179.458ZM468.55 176.573C472.932 176.573 476.806 177.515 480.198 179.375L481.159 177.621C477.44 175.581 473.228 174.573 468.55 174.573V176.573ZM480.203 179.378C483.644 181.235 486.285 183.875 488.142 187.316L489.902 186.366C487.86 182.582 484.938 179.66 481.153 177.618L480.203 179.378ZM488.151 187.333C490.062 190.718 491.032 194.645 491.032 199.141H493.032C493.032 194.348 491.996 190.075 489.893 186.35L488.151 187.333ZM480.56 195.682C480.498 192.326 479.27 189.577 476.85 187.539L475.561 189.068C477.499 190.7 478.508 192.883 478.56 195.719L480.56 195.682ZM476.861 187.548C474.483 185.483 471.577 184.465 468.206 184.465V186.465C471.143 186.465 473.57 187.339 475.55 189.059L476.861 187.548ZM468.206 184.465C465 184.465 462.235 185.459 459.972 187.47L461.301 188.965C463.167 187.306 465.448 186.465 468.206 186.465V184.465ZM459.974 187.469C457.754 189.435 456.433 192.165 455.948 195.559L457.928 195.842C458.361 192.814 459.506 190.555 461.3 188.966L459.974 187.469ZM456.938 196.701H479.56V194.701H456.938V196.701ZM512.864 183.745H511.864V187.286L513.717 184.268L512.864 183.745ZM518.885 177.81L518.391 176.94L518.383 176.945L518.885 177.81ZM527.487 175.659H528.487V174.659H527.487V175.659ZM527.487 188.304V189.304H528.487V188.304H527.487ZM515.703 190.97L515.029 190.231L515.024 190.236L515.018 190.241L515.703 190.97ZM512.864 224V225H513.864V224H512.864ZM500.822 224H499.822V225H500.822V224ZM500.822 176.347V175.347H499.822V176.347H500.822ZM512.864 176.347H513.864V175.347H512.864V176.347ZM513.717 184.268C515.182 181.88 517.071 180.021 519.388 178.674L518.383 176.945C515.768 178.465 513.643 180.563 512.012 183.222L513.717 184.268ZM519.379 178.679C521.736 177.34 524.43 176.659 527.487 176.659V174.659C524.121 174.659 521.081 175.412 518.391 176.94L519.379 178.679ZM526.487 175.659V188.304H528.487V175.659H526.487ZM527.487 187.304H524.304V189.304H527.487V187.304ZM524.304 187.304C520.378 187.304 517.229 188.225 515.029 190.231L516.377 191.709C518.076 190.16 520.662 189.304 524.304 189.304V187.304ZM515.018 190.241C512.822 192.304 511.864 195.751 511.864 200.26H513.864C513.864 195.937 514.799 193.191 516.388 191.699L515.018 190.241ZM511.864 200.26V224H513.864V200.26H511.864ZM512.864 223H500.822V225H512.864V223ZM501.822 224V176.347H499.822V224H501.822ZM500.822 177.347H512.864V175.347H500.822V177.347ZM511.864 176.347V183.745H513.864V176.347H511.864Z" fill="black" mask="url(#path-1-outside-1_1375_6453)"/>
<path d="M86.1877 34.9611L69.4146 95H55.222L43.954 52.2502L32.1698 95L18.0633 95.086L1.89234 34.9611H14.7947L25.3746 81.5816L37.5888 34.9611H51.0073L62.5334 81.3235L73.1993 34.9611H86.1877ZM138.349 70.1415C138.349 71.8618 138.234 73.4101 138.005 74.7863H103.168C103.455 78.227 104.659 80.9221 106.781 82.8718C108.903 84.8215 111.512 85.7963 114.608 85.7963C119.081 85.7963 122.264 83.8753 124.156 80.0333H137.145C135.768 84.6208 133.13 88.4055 129.231 91.3873C125.332 94.3119 120.544 95.7741 114.866 95.7741C110.279 95.7741 106.15 94.7706 102.48 92.7636C98.8676 90.6992 96.0291 87.8034 93.9647 84.076C91.9576 80.3487 90.9541 76.0479 90.9541 71.1737C90.9541 66.2421 91.9576 61.9127 93.9647 58.1853C95.9717 54.458 98.7816 51.5908 102.394 49.5838C106.007 47.5767 110.164 46.5732 114.866 46.5732C119.397 46.5732 123.439 47.548 126.995 49.4977C130.607 51.4474 133.389 54.2286 135.338 57.8412C137.345 61.3966 138.349 65.4966 138.349 70.1415ZM125.876 66.7009C125.819 63.6043 124.701 61.1385 122.522 59.3035C120.343 57.4112 117.676 56.465 114.522 56.465C111.541 56.465 109.017 57.3825 106.953 59.2175C104.946 60.9952 103.713 63.4896 103.254 66.7009H125.876ZM159.181 31.3484V95H147.138V31.3484H159.181ZM167.982 71.1737C167.982 66.2421 168.985 61.9413 170.992 58.2713C172.999 54.544 175.781 51.6768 179.336 49.6698C182.891 47.6054 186.963 46.5732 191.55 46.5732C197.456 46.5732 202.331 48.0641 206.173 51.046C210.072 53.9705 212.681 58.0993 214 63.4323H201.012C200.324 61.3679 199.148 59.7623 197.485 58.6154C195.88 57.4112 193.873 56.8091 191.464 56.8091C188.023 56.8091 185.3 58.0706 183.293 60.5937C181.286 63.0595 180.282 66.5862 180.282 71.1737C180.282 75.7038 181.286 79.2305 183.293 81.7536C185.3 84.2194 188.023 85.4523 191.464 85.4523C196.338 85.4523 199.521 83.2732 201.012 78.9151H214C212.681 84.076 210.072 88.1761 206.173 91.2153C202.273 94.2545 197.399 95.7741 191.55 95.7741C186.963 95.7741 182.891 94.7706 179.336 92.7636C175.781 90.6992 172.999 87.832 170.992 84.162C168.985 80.4347 167.982 76.1052 167.982 71.1737ZM243.982 95.7741C239.394 95.7741 235.266 94.7706 231.596 92.7636C227.926 90.6992 225.03 87.8034 222.908 84.076C220.844 80.3487 219.812 76.0479 219.812 71.1737C219.812 66.2995 220.872 61.9987 222.994 58.2713C225.173 54.544 228.126 51.6768 231.854 49.6698C235.581 47.6054 239.739 46.5732 244.326 46.5732C248.914 46.5732 253.071 47.6054 256.798 49.6698C260.526 51.6768 263.45 54.544 265.572 58.2713C267.751 61.9987 268.84 66.2995 268.84 71.1737C268.84 76.0479 267.722 80.3487 265.486 84.076C263.307 87.8034 260.325 90.6992 256.54 92.7636C252.813 94.7706 248.627 95.7741 243.982 95.7741ZM243.982 85.2802C246.161 85.2802 248.197 84.7641 250.089 83.732C252.039 82.6424 253.587 81.0368 254.734 78.9151C255.881 76.7934 256.454 74.2129 256.454 71.1737C256.454 66.6435 255.25 63.1742 252.842 60.7658C250.49 58.3 247.595 57.0671 244.154 57.0671C240.713 57.0671 237.818 58.3 235.466 60.7658C233.173 63.1742 232.026 66.6435 232.026 71.1737C232.026 75.7038 233.144 79.2018 235.38 81.6676C237.674 84.076 240.541 85.2802 243.982 85.2802ZM336.853 46.6592C342.702 46.6592 347.404 48.4655 350.959 52.0782C354.572 55.6335 356.378 60.6224 356.378 67.0449V95H344.336V68.6792C344.336 64.9519 343.39 62.1134 341.498 60.1637C339.605 58.1566 337.025 57.1531 333.756 57.1531C330.488 57.1531 327.878 58.1566 325.929 60.1637C324.036 62.1134 323.09 64.9519 323.09 68.6792V95H311.048V68.6792C311.048 64.9519 310.102 62.1134 308.209 60.1637C306.317 58.1566 303.737 57.1531 300.468 57.1531C297.142 57.1531 294.504 58.1566 292.555 60.1637C290.662 62.1134 289.716 64.9519 289.716 68.6792V95H277.674V47.3473H289.716V53.1104C291.264 51.1034 293.243 49.5264 295.651 48.3795C298.117 47.2327 300.812 46.6592 303.737 46.6592C307.464 46.6592 310.79 47.462 313.714 49.0677C316.639 50.6159 318.904 52.8523 320.51 55.7769C322.058 53.0244 324.294 50.8166 327.219 49.1537C330.201 47.4907 333.412 46.6592 336.853 46.6592ZM412.104 70.1415C412.104 71.8618 411.989 73.4101 411.759 74.7863H376.923C377.21 78.227 378.414 80.9221 380.536 82.8718C382.658 84.8215 385.267 85.7963 388.363 85.7963C392.836 85.7963 396.019 83.8753 397.911 80.0333H410.899C409.523 84.6208 406.885 88.4055 402.986 91.3873C399.087 94.3119 394.298 95.7741 388.621 95.7741C384.034 95.7741 379.905 94.7706 376.235 92.7636C372.622 90.6992 369.784 87.8034 367.719 84.076C365.712 80.3487 364.709 76.0479 364.709 71.1737C364.709 66.2421 365.712 61.9127 367.719 58.1853C369.727 54.458 372.536 51.5908 376.149 49.5838C379.762 47.5767 383.919 46.5732 388.621 46.5732C393.151 46.5732 397.194 47.548 400.749 49.4977C404.362 51.4474 407.143 54.2286 409.093 57.8412C411.1 61.3966 412.104 65.4966 412.104 70.1415ZM399.631 66.7009C399.574 63.6043 398.456 61.1385 396.277 59.3035C394.098 57.4112 391.431 56.465 388.277 56.465C385.295 56.465 382.772 57.3825 380.708 59.2175C378.701 60.9952 377.468 63.4896 377.009 66.7009H399.631ZM455.41 57.2391V80.2913C455.41 81.897 455.782 83.0725 456.528 83.818C457.331 84.5061 458.65 84.8502 460.485 84.8502H466.076V95H458.506C448.356 95 443.282 90.0684 443.282 80.2053V57.2391H437.604V47.3473H443.282V35.5632H455.41V47.3473H466.076V57.2391H455.41ZM495.897 95.7741C491.309 95.7741 487.181 94.7706 483.511 92.7636C479.841 90.6992 476.945 87.8034 474.823 84.076C472.759 80.3487 471.726 76.0479 471.726 71.1737C471.726 66.2995 472.787 61.9987 474.909 58.2713C477.088 54.544 480.041 51.6768 483.769 49.6698C487.496 47.6054 491.653 46.5732 496.241 46.5732C500.828 46.5732 504.986 47.6054 508.713 49.6698C512.441 51.6768 515.365 54.544 517.487 58.2713C519.666 61.9987 520.755 66.2995 520.755 71.1737C520.755 76.0479 519.637 80.3487 517.401 84.076C515.222 87.8034 512.24 90.6992 508.455 92.7636C504.728 94.7706 500.542 95.7741 495.897 95.7741ZM495.897 85.2802C498.076 85.2802 500.112 84.7641 502.004 83.732C503.954 82.6424 505.502 81.0368 506.649 78.9151C507.796 76.7934 508.369 74.2129 508.369 71.1737C508.369 66.6435 507.165 63.1742 504.756 60.7658C502.405 58.3 499.51 57.0671 496.069 57.0671C492.628 57.0671 489.732 58.3 487.381 60.7658C485.088 63.1742 483.941 66.6435 483.941 71.1737C483.941 75.7038 485.059 79.2018 487.295 81.6676C489.589 84.076 492.456 85.2802 495.897 85.2802Z" fill="#323232"/>
<path d="M3.01055 193.895C3.01055 187.988 4.32945 182.712 6.96727 178.068C9.66242 173.365 13.3038 169.724 17.8913 167.144C22.5361 164.506 27.7257 163.187 33.4601 163.187C40.1693 163.187 46.047 164.907 51.0933 168.348C56.1395 171.789 59.6662 176.548 61.6732 182.626H47.8247C46.4484 179.759 44.4988 177.609 41.9756 176.175C39.5098 174.742 36.6427 174.025 33.3741 174.025C29.8761 174.025 26.7509 174.856 23.9984 176.519C21.3032 178.125 19.1815 180.419 17.6332 183.401C16.1423 186.382 15.3968 189.88 15.3968 193.895C15.3968 197.851 16.1423 201.349 17.6332 204.388C19.1815 207.37 21.3032 209.693 23.9984 211.356C26.7509 212.961 29.8761 213.764 33.3741 213.764C36.6427 213.764 39.5098 213.047 41.9756 211.614C44.4988 210.123 46.4484 207.944 47.8247 205.077H61.6732C59.6662 211.212 56.1395 216.001 51.0933 219.441C46.1044 222.824 40.2266 224.516 33.4601 224.516C27.7257 224.516 22.5361 223.226 17.8913 220.645C13.3038 218.008 9.66242 214.366 6.96727 209.721C4.32945 205.077 3.01055 199.801 3.01055 193.895ZM84.001 160.348V224H71.9588V160.348H84.001ZM117.059 224.774C112.471 224.774 108.342 223.771 104.672 221.764C101.002 219.699 98.1064 216.803 95.9847 213.076C93.9203 209.349 92.8881 205.048 92.8881 200.174C92.8881 195.299 93.949 190.999 96.0707 187.271C98.2498 183.544 101.203 180.677 104.93 178.67C108.658 176.605 112.815 175.573 117.403 175.573C121.99 175.573 126.148 176.605 129.875 178.67C133.602 180.677 136.527 183.544 138.648 187.271C140.828 190.999 141.917 195.299 141.917 200.174C141.917 205.048 140.799 209.349 138.562 213.076C136.383 216.803 133.401 219.699 129.617 221.764C125.889 223.771 121.703 224.774 117.059 224.774ZM117.059 214.28C119.238 214.28 121.273 213.764 123.166 212.732C125.115 211.642 126.664 210.037 127.81 207.915C128.957 205.793 129.531 203.213 129.531 200.174C129.531 195.644 128.327 192.174 125.918 189.766C123.567 187.3 120.671 186.067 117.231 186.067C113.79 186.067 110.894 187.3 108.543 189.766C106.249 192.174 105.102 195.644 105.102 200.174C105.102 204.704 106.221 208.202 108.457 210.668C110.751 213.076 113.618 214.28 117.059 214.28ZM195.737 176.347V224H183.608V217.979C182.06 220.043 180.024 221.678 177.501 222.882C175.036 224.029 172.34 224.602 169.416 224.602C165.688 224.602 162.391 223.828 159.524 222.28C156.657 220.674 154.392 218.352 152.729 215.312C151.123 212.216 150.32 208.546 150.32 204.302V176.347H162.363V202.582C162.363 206.367 163.309 209.291 165.201 211.356C167.093 213.363 169.674 214.366 172.942 214.366C176.268 214.366 178.878 213.363 180.77 211.356C182.662 209.291 183.608 206.367 183.608 202.582V176.347H195.737ZM204.522 200.002C204.522 195.185 205.468 190.913 207.36 187.185C209.31 183.458 211.948 180.591 215.274 178.584C218.6 176.577 222.298 175.573 226.37 175.573C229.466 175.573 232.419 176.261 235.229 177.638C238.039 178.956 240.275 180.734 241.938 182.971V160.348H254.153V224H241.938V216.947C240.447 219.298 238.354 221.19 235.659 222.624C232.964 224.057 229.839 224.774 226.284 224.774C222.27 224.774 218.6 223.742 215.274 221.678C211.948 219.613 209.31 216.717 207.36 212.99C205.468 209.205 204.522 204.876 204.522 200.002ZM242.024 200.174C242.024 197.249 241.451 194.755 240.304 192.69C239.157 190.569 237.609 188.963 235.659 187.873C233.71 186.727 231.617 186.153 229.38 186.153C227.144 186.153 225.079 186.698 223.187 187.787C221.295 188.877 219.746 190.483 218.542 192.604C217.395 194.669 216.822 197.134 216.822 200.002C216.822 202.869 217.395 205.392 218.542 207.571C219.746 209.693 221.295 211.327 223.187 212.474C225.137 213.621 227.201 214.194 229.38 214.194C231.617 214.194 233.71 213.649 235.659 212.56C237.609 211.413 239.157 209.807 240.304 207.743C241.451 205.621 242.024 203.098 242.024 200.174Z" fill="#2F27CE"/>
</svg>
